<?xml version="1.0" encoding="utf-8" standalone="no"?>
<!DOCTYPE svg PUBLIC "-//W3C//DTD SVG 1.1//EN"
  "http://www.w3.org/Graphics/SVG/1.1/DTD/svg11.dtd">
<!-- Created with matplotlib (https://matplotlib.org/) -->
<svg height="345.6pt" version="1.1" viewBox="0 0 460.8 345.6" width="460.8pt" xmlns="http://www.w3.org/2000/svg" xmlns:xlink="http://www.w3.org/1999/xlink">
 <metadata>
  <rdf:RDF xmlns:cc="http://creativecommons.org/ns#" xmlns:dc="http://purl.org/dc/elements/1.1/" xmlns:rdf="http://www.w3.org/1999/02/22-rdf-syntax-ns#">
   <cc:Work>
    <dc:type rdf:resource="http://purl.org/dc/dcmitype/StillImage"/>
    <dc:date>2021-07-22T15:37:52.480168</dc:date>
    <dc:format>image/svg+xml</dc:format>
    <dc:creator>
     <cc:Agent>
      <dc:title>Matplotlib v3.3.4, https://matplotlib.org/</dc:title>
     </cc:Agent>
    </dc:creator>
   </cc:Work>
  </rdf:RDF>
 </metadata>
 <defs>
  <style type="text/css">*{stroke-linecap:butt;stroke-linejoin:round;}</style>
 </defs>
 <g id="figure_1">
  <g id="patch_1">
   <path d="M 0 345.6 
L 460.8 345.6 
L 460.8 0 
L 0 0 
z
" style="fill:#ffffff;"/>
  </g>
  <g id="axes_1">
   <g id="patch_2">
    <path d="M 57.6 307.584 
L 414.72 307.584 
L 414.72 41.472 
L 57.6 41.472 
z
" style="fill:#ffffff;"/>
   </g>
   <g id="matplotlib.axis_1">
    <g id="xtick_1">
     <g id="line2d_1">
      <defs>
       <path d="M 0 0 
L 0 3.5 
" id="m109eb02368" style="stroke:#000000;stroke-width:0.8;"/>
      </defs>
      <g>
       <use style="stroke:#000000;stroke-width:0.8;" x="73.832727" xlink:href="#m109eb02368" y="307.584"/>
      </g>
     </g>
     <g id="text_1">
      <!-- 0 -->
      <g transform="translate(70.832727 322.834)scale(0.12 -0.12)">
       <defs>
        <path d="M 3.125 29.296875 
Q 3.90625 50 6.4375 56.046875 
Q 8.984375 62.109375 13.671875 66.015625 
Q 18.359375 69.921875 25.1875 69.921875 
Q 32.03125 69.921875 37.109375 64.25 
Q 42.1875 58.59375 43.75 50 
Q 45.3125 41.40625 44.71875 30.265625 
Q 44.140625 19.140625 40.8125 12.109375 
Q 37.5 5.078125 30.859375 2.34375 
Q 24.21875 -0.390625 17.578125 2.921875 
Q 10.9375 6.25 8.203125 11.71875 
Q 5.46875 17.1875 4.296875 23.234375 
Q 3.125 29.296875 3.90625 50 
z
M 12.890625 52.734375 
Q 10.546875 31.25 12.5 22.84375 
Q 14.453125 14.453125 18.9375 10.9375 
Q 23.4375 7.421875 28.125 9.5625 
Q 32.8125 11.71875 34.953125 18.15625 
Q 37.109375 24.609375 37.109375 32.21875 
Q 37.109375 39.84375 36.515625 46.09375 
Q 35.9375 52.34375 33 57.421875 
Q 30.078125 62.5 25.1875 62.6875 
Q 20.3125 62.890625 16.59375 57.8125 
Q 12.890625 52.734375 10.546875 31.25 
z
" id="SimHei-48"/>
       </defs>
       <use xlink:href="#SimHei-48"/>
      </g>
     </g>
    </g>
    <g id="xtick_2">
     <g id="line2d_2">
      <g>
       <use style="stroke:#000000;stroke-width:0.8;" x="117.361828" xlink:href="#m109eb02368" y="307.584"/>
      </g>
     </g>
     <g id="text_2">
      <!-- 24 -->
      <g transform="translate(111.361828 322.834)scale(0.12 -0.12)">
       <defs>
        <path d="M 4.6875 3.90625 
Q 5.078125 9.765625 10.15625 14.453125 
Q 15.234375 19.140625 23.046875 29.09375 
Q 30.859375 39.0625 33.203125 44.53125 
Q 35.546875 50 34.953125 53.90625 
Q 34.375 57.8125 31.25 60.34375 
Q 28.125 62.890625 24.015625 62.5 
Q 19.921875 62.109375 16.203125 59.375 
Q 12.5 56.640625 10.546875 51.171875 
L 3.125 52.34375 
Q 6.25 61.328125 11.125 65.421875 
Q 16.015625 69.53125 22.65625 69.921875 
Q 26.5625 70.3125 29.6875 69.71875 
Q 32.8125 69.140625 36.125 66.984375 
Q 39.453125 64.84375 41.59375 60.546875 
Q 43.75 56.25 43.15625 50.1875 
Q 42.578125 44.140625 37.109375 35.734375 
Q 31.640625 27.34375 16.015625 9.375 
L 44.140625 9.375 
L 44.140625 2.34375 
L 4.6875 2.34375 
z
" id="SimHei-50"/>
        <path d="M 31.25 17.1875 
L 1.171875 17.1875 
L 1.171875 23.828125 
L 32.8125 69.53125 
L 38.671875 69.53125 
L 38.671875 23.828125 
L 48.046875 23.828125 
L 48.046875 17.1875 
L 38.671875 17.1875 
L 38.671875 2.34375 
L 31.25 2.34375 
z
M 31.25 23.828125 
L 31.25 54.6875 
L 9.375 23.828125 
z
" id="SimHei-52"/>
       </defs>
       <use xlink:href="#SimHei-50"/>
       <use x="50" xlink:href="#SimHei-52"/>
      </g>
     </g>
    </g>
    <g id="xtick_3">
     <g id="line2d_3">
      <g>
       <use style="stroke:#000000;stroke-width:0.8;" x="160.890929" xlink:href="#m109eb02368" y="307.584"/>
      </g>
     </g>
     <g id="text_3">
      <!-- 48 -->
      <g transform="translate(154.890929 322.834)scale(0.12 -0.12)">
       <defs>
        <path d="M 2.734375 16.796875 
Q 2.734375 26.171875 5.078125 30.65625 
Q 7.421875 35.15625 12.890625 37.890625 
Q 8.203125 40.625 6.640625 43.9375 
Q 5.078125 47.265625 4.875 51.5625 
Q 4.6875 55.859375 6.046875 58.984375 
Q 7.421875 62.109375 10.15625 64.84375 
Q 12.890625 67.578125 16.203125 68.546875 
Q 19.53125 69.53125 23.4375 69.53125 
Q 27.34375 69.53125 30.46875 68.75 
Q 33.59375 67.96875 37.109375 65.421875 
Q 40.625 62.890625 42.1875 58.203125 
Q 43.75 53.515625 41.984375 47.265625 
Q 40.234375 41.015625 32.8125 37.5 
Q 39.453125 35.546875 42.1875 31.4375 
Q 44.921875 27.34375 44.921875 21.484375 
Q 44.921875 15.625 43.15625 12.109375 
Q 41.40625 8.59375 39.25 6.25 
Q 37.109375 3.90625 33.390625 2.53125 
Q 29.6875 1.171875 24.015625 1.171875 
Q 18.359375 1.171875 14.25 2.53125 
Q 10.15625 3.90625 7.421875 6.640625 
Q 4.6875 9.375 3.703125 13.078125 
Q 2.734375 16.796875 2.734375 26.171875 
z
M 10.9375 26.5625 
Q 10.546875 17.1875 12.296875 13.671875 
Q 14.0625 10.15625 18.75 9.171875 
Q 23.4375 8.203125 28.515625 9.375 
Q 33.59375 10.546875 35.546875 14.84375 
Q 37.5 19.140625 36.90625 23.4375 
Q 36.328125 27.734375 32.03125 30.65625 
Q 27.734375 33.59375 22.65625 33.203125 
Q 17.578125 32.8125 14.25 29.6875 
Q 10.9375 26.5625 10.546875 17.1875 
z
M 12.109375 56.25 
Q 12.109375 48.4375 14.84375 44.921875 
Q 17.578125 41.40625 23.4375 41.40625 
Q 29.296875 41.40625 32.21875 44.921875 
Q 35.15625 48.4375 34.953125 53.3125 
Q 34.765625 58.203125 31.4375 60.546875 
Q 28.125 62.890625 22.453125 62.5 
Q 16.796875 62.109375 14.453125 59.171875 
Q 12.109375 56.25 12.109375 48.4375 
z
" id="SimHei-56"/>
       </defs>
       <use xlink:href="#SimHei-52"/>
       <use x="50" xlink:href="#SimHei-56"/>
      </g>
     </g>
    </g>
    <g id="xtick_4">
     <g id="line2d_4">
      <g>
       <use style="stroke:#000000;stroke-width:0.8;" x="204.42003" xlink:href="#m109eb02368" y="307.584"/>
      </g>
     </g>
     <g id="text_4">
      <!-- 72 -->
      <g transform="translate(198.42003 322.834)scale(0.12 -0.12)">
       <defs>
        <path d="M 13.28125 2.34375 
Q 20.3125 32.03125 37.890625 61.328125 
L 4.296875 61.328125 
L 4.296875 68.359375 
L 46.09375 68.359375 
L 46.09375 61.71875 
Q 27.734375 32.03125 21.875 2.34375 
L 13.28125 2.34375 
z
" id="SimHei-55"/>
       </defs>
       <use xlink:href="#SimHei-55"/>
       <use x="50" xlink:href="#SimHei-50"/>
      </g>
     </g>
    </g>
    <g id="xtick_5">
     <g id="line2d_5">
      <g>
       <use style="stroke:#000000;stroke-width:0.8;" x="247.949132" xlink:href="#m109eb02368" y="307.584"/>
      </g>
     </g>
     <g id="text_5">
      <!-- 96 -->
      <g transform="translate(241.949132 322.834)scale(0.12 -0.12)">
       <defs>
        <path d="M 12.5 1.171875 
Q 21.09375 15.625 26.5625 27.34375 
Q 16.796875 25.78125 10.34375 29.875 
Q 3.90625 33.984375 2.53125 41.015625 
Q 1.171875 48.046875 2.734375 53.703125 
Q 4.296875 59.375 7.609375 63.078125 
Q 10.9375 66.796875 15.625 68.359375 
Q 20.3125 69.921875 24.015625 69.921875 
Q 27.734375 69.921875 31.640625 68.359375 
Q 35.546875 66.796875 38.671875 63.671875 
Q 41.796875 60.546875 42.96875 57.21875 
Q 44.140625 53.90625 44.140625 48.625 
Q 44.140625 43.359375 40.234375 35.15625 
Q 36.328125 26.953125 21.09375 1.171875 
z
M 9.765625 50 
Q 10.9375 39.84375 14.640625 36.515625 
Q 18.359375 33.203125 22.65625 33.59375 
Q 26.953125 33.984375 29.484375 35.9375 
Q 32.03125 37.890625 34.375 42.578125 
Q 35.9375 48.4375 35.15625 52.53125 
Q 34.375 56.640625 31.046875 59.375 
Q 27.734375 62.109375 23.828125 62.109375 
Q 21.484375 62.5 17.765625 60.9375 
Q 14.0625 59.375 11.90625 54.6875 
Q 9.765625 50 10.9375 39.84375 
z
" id="SimHei-57"/>
        <path d="M 3.515625 19.53125 
Q 4.296875 30.859375 6.046875 34.765625 
Q 7.8125 38.671875 11.328125 44.53125 
L 27.34375 69.53125 
L 36.328125 69.53125 
L 19.921875 43.75 
Q 30.46875 46.484375 36.71875 42.96875 
Q 42.96875 39.453125 45.109375 34.953125 
Q 47.265625 30.46875 47.453125 25.1875 
Q 47.65625 19.921875 45.890625 14.84375 
Q 44.140625 9.765625 39.640625 5.65625 
Q 35.15625 1.5625 27.140625 1.171875 
Q 19.140625 0.78125 13.46875 4.09375 
Q 7.8125 7.421875 5.65625 13.46875 
Q 3.515625 19.53125 4.296875 30.859375 
z
M 12.5 16.015625 
Q 19.53125 8.59375 25.390625 8.203125 
Q 31.25 7.8125 35.15625 12.109375 
Q 39.0625 16.40625 39.0625 24.609375 
Q 39.0625 32.8125 34.171875 35.9375 
Q 29.296875 39.0625 23.234375 38.28125 
Q 17.1875 37.5 14.453125 32.421875 
Q 11.71875 27.34375 12.109375 21.671875 
Q 12.5 16.015625 19.53125 8.59375 
z
" id="SimHei-54"/>
       </defs>
       <use xlink:href="#SimHei-57"/>
       <use x="50" xlink:href="#SimHei-54"/>
      </g>
     </g>
    </g>
    <g id="xtick_6">
     <g id="line2d_6">
      <g>
       <use style="stroke:#000000;stroke-width:0.8;" x="291.478233" xlink:href="#m109eb02368" y="307.584"/>
      </g>
     </g>
     <g id="text_6">
      <!-- 120 -->
      <g transform="translate(282.478233 322.834)scale(0.12 -0.12)">
       <defs>
        <path d="M 21.875 56.25 
Q 16.796875 51.171875 8.984375 46.484375 
L 8.984375 53.90625 
Q 18.75 60.546875 25 69.53125 
L 29.6875 69.53125 
L 29.6875 2.34375 
L 21.875 2.34375 
z
" id="SimHei-49"/>
       </defs>
       <use xlink:href="#SimHei-49"/>
       <use x="50" xlink:href="#SimHei-50"/>
       <use x="100" xlink:href="#SimHei-48"/>
      </g>
     </g>
    </g>
    <g id="xtick_7">
     <g id="line2d_7">
      <g>
       <use style="stroke:#000000;stroke-width:0.8;" x="335.007334" xlink:href="#m109eb02368" y="307.584"/>
      </g>
     </g>
     <g id="text_7">
      <!-- 144 -->
      <g transform="translate(326.007334 322.834)scale(0.12 -0.12)">
       <use xlink:href="#SimHei-49"/>
       <use x="50" xlink:href="#SimHei-52"/>
       <use x="100" xlink:href="#SimHei-52"/>
      </g>
     </g>
    </g>
    <g id="xtick_8">
     <g id="line2d_8">
      <g>
       <use style="stroke:#000000;stroke-width:0.8;" x="378.536435" xlink:href="#m109eb02368" y="307.584"/>
      </g>
     </g>
     <g id="text_8">
      <!-- 168 -->
      <g transform="translate(369.536435 322.834)scale(0.12 -0.12)">
       <use xlink:href="#SimHei-49"/>
       <use x="50" xlink:href="#SimHei-54"/>
       <use x="100" xlink:href="#SimHei-56"/>
      </g>
     </g>
    </g>
    <g id="text_9">
     <!-- Time/h -->
     <g transform="translate(218.16 336.584)scale(0.12 -0.12)">
      <defs>
       <path d="M 44.53125 61.328125 
L 28.90625 61.328125 
L 28.90625 1.953125 
L 19.921875 1.953125 
L 19.921875 61.328125 
L 4.296875 61.328125 
L 4.296875 68.75 
L 44.53125 68.75 
z
" id="SimHei-84"/>
       <path d="M 28.125 58.203125 
L 20.3125 58.203125 
L 20.3125 68.359375 
L 28.125 68.359375 
z
M 28.125 1.953125 
L 20.3125 1.953125 
L 20.3125 45.703125 
L 28.125 45.703125 
z
" id="SimHei-105"/>
       <path d="M 47.65625 1.953125 
L 39.84375 1.953125 
L 39.84375 33.59375 
Q 39.84375 35.9375 39.0625 37.5 
Q 38.28125 39.0625 35.9375 39.0625 
Q 33.203125 39.0625 30.859375 36.125 
Q 28.515625 33.203125 28.515625 28.515625 
L 28.515625 1.953125 
L 20.703125 1.953125 
L 20.703125 33.59375 
Q 20.703125 35.9375 19.921875 37.5 
Q 19.140625 39.0625 16.796875 39.0625 
Q 14.0625 39.0625 11.71875 36.125 
Q 9.375 33.203125 9.375 28.515625 
L 9.375 1.953125 
L 1.5625 1.953125 
L 1.5625 45.703125 
L 9.375 45.703125 
L 9.375 39.84375 
Q 11.328125 42.96875 14.0625 44.71875 
Q 16.796875 46.484375 19.921875 46.484375 
Q 23.046875 46.484375 25.1875 44.71875 
Q 27.34375 42.96875 28.125 39.84375 
Q 30.078125 42.96875 32.609375 44.71875 
Q 35.15625 46.484375 38.28125 46.484375 
Q 42.96875 46.484375 45.3125 43.9375 
Q 47.65625 41.40625 47.65625 36.71875 
z
" id="SimHei-109"/>
       <path d="M 44.53125 16.796875 
Q 43.75 9.765625 38.28125 5.46875 
Q 32.8125 1.171875 25.390625 1.171875 
Q 16.015625 1.171875 9.953125 7.21875 
Q 3.90625 13.28125 3.90625 23.828125 
Q 3.90625 34.375 9.953125 40.421875 
Q 16.015625 46.484375 25.390625 46.484375 
Q 33.59375 46.484375 38.859375 41.203125 
Q 44.140625 35.9375 44.140625 23.828125 
L 12.5 23.828125 
Q 12.5 15.234375 16.203125 11.71875 
Q 19.921875 8.203125 25.390625 8.203125 
Q 29.6875 8.203125 32.421875 10.34375 
Q 35.15625 12.5 35.9375 16.796875 
z
M 35.15625 30.078125 
Q 34.375 35.546875 31.640625 37.6875 
Q 28.90625 39.84375 24.609375 39.84375 
Q 20.703125 39.84375 17.578125 37.6875 
Q 14.453125 35.546875 12.890625 30.078125 
z
" id="SimHei-101"/>
       <path d="M 46.875 71.09375 
L 5.46875 -2.734375 
L 1.5625 -0.390625 
L 42.96875 73.4375 
z
" id="SimHei-47"/>
       <path d="M 43.75 1.953125 
L 35.9375 1.953125 
L 35.9375 30.078125 
Q 35.9375 34.765625 33.59375 37.5 
Q 31.25 40.234375 27.34375 40.234375 
Q 22.265625 40.234375 17.765625 34.953125 
Q 13.28125 29.6875 13.28125 21.875 
L 13.28125 1.953125 
L 5.46875 1.953125 
L 5.46875 68.75 
L 13.28125 68.75 
L 13.28125 37.5 
Q 16.40625 41.796875 20.109375 44.140625 
Q 23.828125 46.484375 29.6875 46.484375 
Q 36.71875 46.484375 40.234375 42.578125 
Q 43.75 38.671875 43.75 32.8125 
z
" id="SimHei-104"/>
      </defs>
      <use xlink:href="#SimHei-84"/>
      <use x="50" xlink:href="#SimHei-105"/>
      <use x="100" xlink:href="#SimHei-109"/>
      <use x="150" xlink:href="#SimHei-101"/>
      <use x="200" xlink:href="#SimHei-47"/>
      <use x="250" xlink:href="#SimHei-104"/>
     </g>
    </g>
   </g>
   <g id="matplotlib.axis_2">
    <g id="ytick_1">
     <g id="line2d_9">
      <defs>
       <path d="M 0 0 
L -3.5 0 
" id="m98d48ad639" style="stroke:#000000;stroke-width:0.8;"/>
      </defs>
      <g>
       <use style="stroke:#000000;stroke-width:0.8;" x="57.6" xlink:href="#m98d48ad639" y="298.801973"/>
      </g>
     </g>
     <g id="text_10">
      <!-- 14 -->
      <g transform="translate(38.6 302.926973)scale(0.12 -0.12)">
       <use xlink:href="#SimHei-49"/>
       <use x="50" xlink:href="#SimHei-52"/>
      </g>
     </g>
    </g>
    <g id="ytick_2">
     <g id="line2d_10">
      <g>
       <use style="stroke:#000000;stroke-width:0.8;" x="57.6" xlink:href="#m98d48ad639" y="265.662247"/>
      </g>
     </g>
     <g id="text_11">
      <!-- 16 -->
      <g transform="translate(38.6 269.787247)scale(0.12 -0.12)">
       <use xlink:href="#SimHei-49"/>
       <use x="50" xlink:href="#SimHei-54"/>
      </g>
     </g>
    </g>
    <g id="ytick_3">
     <g id="line2d_11">
      <g>
       <use style="stroke:#000000;stroke-width:0.8;" x="57.6" xlink:href="#m98d48ad639" y="232.522521"/>
      </g>
     </g>
     <g id="text_12">
      <!-- 18 -->
      <g transform="translate(38.6 236.647521)scale(0.12 -0.12)">
       <use xlink:href="#SimHei-49"/>
       <use x="50" xlink:href="#SimHei-56"/>
      </g>
     </g>
    </g>
    <g id="ytick_4">
     <g id="line2d_12">
      <g>
       <use style="stroke:#000000;stroke-width:0.8;" x="57.6" xlink:href="#m98d48ad639" y="199.382795"/>
      </g>
     </g>
     <g id="text_13">
      <!-- 20 -->
      <g transform="translate(38.6 203.507795)scale(0.12 -0.12)">
       <use xlink:href="#SimHei-50"/>
       <use x="50" xlink:href="#SimHei-48"/>
      </g>
     </g>
    </g>
    <g id="ytick_5">
     <g id="line2d_13">
      <g>
       <use style="stroke:#000000;stroke-width:0.8;" x="57.6" xlink:href="#m98d48ad639" y="166.243068"/>
      </g>
     </g>
     <g id="text_14">
      <!-- 22 -->
      <g transform="translate(38.6 170.368068)scale(0.12 -0.12)">
       <use xlink:href="#SimHei-50"/>
       <use x="50" xlink:href="#SimHei-50"/>
      </g>
     </g>
    </g>
    <g id="ytick_6">
     <g id="line2d_14">
      <g>
       <use style="stroke:#000000;stroke-width:0.8;" x="57.6" xlink:href="#m98d48ad639" y="133.103342"/>
      </g>
     </g>
     <g id="text_15">
      <!-- 24 -->
      <g transform="translate(38.6 137.228342)scale(0.12 -0.12)">
       <use xlink:href="#SimHei-50"/>
       <use x="50" xlink:href="#SimHei-52"/>
      </g>
     </g>
    </g>
    <g id="ytick_7">
     <g id="line2d_15">
      <g>
       <use style="stroke:#000000;stroke-width:0.8;" x="57.6" xlink:href="#m98d48ad639" y="99.963616"/>
      </g>
     </g>
     <g id="text_16">
      <!-- 26 -->
      <g transform="translate(38.6 104.088616)scale(0.12 -0.12)">
       <use xlink:href="#SimHei-50"/>
       <use x="50" xlink:href="#SimHei-54"/>
      </g>
     </g>
    </g>
    <g id="ytick_8">
     <g id="line2d_16">
      <g>
       <use style="stroke:#000000;stroke-width:0.8;" x="57.6" xlink:href="#m98d48ad639" y="66.82389"/>
      </g>
     </g>
     <g id="text_17">
      <!-- 28 -->
      <g transform="translate(38.6 70.94889)scale(0.12 -0.12)">
       <use xlink:href="#SimHei-50"/>
       <use x="50" xlink:href="#SimHei-56"/>
      </g>
     </g>
    </g>
    <g id="text_18">
     <!-- Temperature/C -->
     <g transform="translate(33.1 213.528)rotate(-90)scale(0.12 -0.12)">
      <defs>
       <path d="M 44.140625 23.828125 
Q 44.140625 12.5 38.671875 6.640625 
Q 33.203125 0.78125 25.390625 0.78125 
Q 21.09375 0.78125 17.96875 2.53125 
Q 14.84375 4.296875 12.5 7.8125 
L 12.5 -12.5 
L 4.6875 -12.5 
L 4.6875 45.703125 
L 12.5 45.703125 
L 12.5 39.84375 
Q 14.84375 43.359375 17.96875 44.921875 
Q 21.09375 46.484375 25.390625 46.484375 
Q 33.203125 46.484375 38.671875 40.8125 
Q 44.140625 35.15625 44.140625 23.828125 
z
M 35.546875 23.828125 
Q 35.546875 31.25 32.609375 35.34375 
Q 29.6875 39.453125 23.828125 39.453125 
Q 19.140625 39.453125 15.8125 35.34375 
Q 12.5 31.25 12.5 23.828125 
Q 12.5 16.40625 15.8125 12.109375 
Q 19.140625 7.8125 23.828125 7.8125 
Q 29.6875 7.8125 32.609375 12.109375 
Q 35.546875 16.40625 35.546875 23.828125 
z
" id="SimHei-112"/>
       <path d="M 39.0625 37.890625 
Q 31.640625 39.0625 26.5625 35.734375 
Q 21.484375 32.421875 17.96875 24.21875 
L 17.96875 1.953125 
L 10.15625 1.953125 
L 10.15625 45.703125 
L 17.96875 45.703125 
L 17.96875 34.375 
Q 21.484375 40.625 26.75 43.546875 
Q 32.03125 46.484375 39.0625 46.484375 
z
" id="SimHei-114"/>
       <path d="M 44.921875 1.953125 
L 35.546875 1.953125 
Q 34.765625 2.734375 34.375 4.09375 
Q 33.984375 5.46875 33.984375 7.421875 
Q 31.25 4.296875 27.34375 2.734375 
Q 23.4375 1.171875 19.140625 1.171875 
Q 12.890625 1.171875 8.59375 4.296875 
Q 4.296875 7.421875 4.296875 13.28125 
Q 4.296875 19.140625 8.203125 22.65625 
Q 12.109375 26.171875 20.3125 27.34375 
Q 25.78125 28.125 29.875 29.296875 
Q 33.984375 30.46875 33.984375 32.421875 
Q 33.984375 34.765625 32.21875 37.109375 
Q 30.46875 39.453125 24.609375 39.453125 
Q 19.921875 39.453125 17.765625 37.6875 
Q 15.625 35.9375 14.84375 32.8125 
L 6.25 32.8125 
Q 7.03125 39.0625 11.90625 42.765625 
Q 16.796875 46.484375 24.609375 46.484375 
Q 33.203125 46.484375 37.5 42.578125 
Q 41.796875 38.671875 41.796875 31.640625 
L 41.796875 10.15625 
Q 41.796875 7.8125 42.578125 5.859375 
Q 43.359375 3.90625 44.921875 1.953125 
z
M 33.984375 16.40625 
L 33.984375 24.21875 
Q 31.640625 23.4375 29.484375 22.84375 
Q 27.34375 22.265625 22.265625 21.484375 
Q 16.40625 20.703125 14.640625 18.75 
Q 12.890625 16.796875 12.890625 14.0625 
Q 12.890625 11.71875 14.640625 9.953125 
Q 16.40625 8.203125 19.921875 8.203125 
Q 23.4375 8.203125 27.53125 10.15625 
Q 31.640625 12.109375 33.984375 16.40625 
z
" id="SimHei-97"/>
       <path d="M 42.96875 3.125 
Q 41.015625 2.34375 38.46875 1.75 
Q 35.9375 1.171875 31.640625 1.171875 
Q 24.609375 1.171875 20.3125 5.078125 
Q 16.015625 8.984375 16.015625 16.015625 
L 16.015625 39.453125 
L 2.734375 39.453125 
L 2.734375 45.703125 
L 16.015625 45.703125 
L 16.015625 60.9375 
L 23.828125 60.9375 
L 23.828125 45.703125 
L 39.84375 45.703125 
L 39.84375 39.453125 
L 23.828125 39.453125 
L 23.828125 15.625 
Q 23.828125 12.5 25.390625 10.34375 
Q 26.953125 8.203125 31.25 8.203125 
Q 35.546875 8.203125 38.28125 8.984375 
Q 41.015625 9.765625 42.96875 10.9375 
z
" id="SimHei-116"/>
       <path d="M 43.75 1.953125 
L 35.9375 1.953125 
L 35.9375 10.15625 
Q 32.8125 5.859375 29.09375 3.515625 
Q 25.390625 1.171875 19.53125 1.171875 
Q 12.5 1.171875 8.984375 5.078125 
Q 5.46875 8.984375 5.46875 14.84375 
L 5.46875 45.703125 
L 13.28125 45.703125 
L 13.28125 17.578125 
Q 13.28125 12.890625 15.625 10.15625 
Q 17.96875 7.421875 21.875 7.421875 
Q 26.953125 7.421875 31.4375 12.6875 
Q 35.9375 17.96875 35.9375 25.78125 
L 35.9375 45.703125 
L 43.75 45.703125 
z
" id="SimHei-117"/>
       <path d="M 46.484375 28.515625 
Q 46.09375 13.671875 40.234375 7.421875 
Q 34.375 1.171875 26.171875 1.171875 
Q 16.796875 1.171875 10.15625 8.78125 
Q 3.515625 16.40625 3.515625 33.203125 
Q 3.515625 51.5625 9.953125 60.546875 
Q 16.40625 69.53125 26.5625 69.53125 
Q 35.15625 69.53125 40.8125 63.078125 
Q 46.484375 56.640625 46.09375 44.921875 
L 37.5 44.921875 
Q 37.5 53.515625 34.765625 57.8125 
Q 32.03125 62.109375 26.5625 62.109375 
Q 20.3125 62.109375 16.59375 55.65625 
Q 12.890625 49.21875 12.890625 33.984375 
Q 12.890625 19.921875 16.59375 14.25 
Q 20.3125 8.59375 26.171875 8.59375 
Q 30.46875 8.59375 33.984375 12.6875 
Q 37.5 16.796875 37.5 28.515625 
z
" id="SimHei-67"/>
      </defs>
      <use xlink:href="#SimHei-84"/>
      <use x="50" xlink:href="#SimHei-101"/>
      <use x="100" xlink:href="#SimHei-109"/>
      <use x="150" xlink:href="#SimHei-112"/>
      <use x="200" xlink:href="#SimHei-101"/>
      <use x="250" xlink:href="#SimHei-114"/>
      <use x="300" xlink:href="#SimHei-97"/>
      <use x="350" xlink:href="#SimHei-116"/>
      <use x="400" xlink:href="#SimHei-117"/>
      <use x="450" xlink:href="#SimHei-114"/>
      <use x="500" xlink:href="#SimHei-101"/>
      <use x="550" xlink:href="#SimHei-47"/>
      <use x="600" xlink:href="#SimHei-67"/>
     </g>
    </g>
   </g>
   <g id="line2d_17">
    <path clip-path="url(#pa529058789)" d="M 73.832727 141.388274 
L 75.64644 119.847452 
L 77.460152 101.620603 
L 79.273865 90.021699 
L 81.087577 86.707726 
L 82.90129 90.021699 
L 84.715003 90.021699 
L 86.528715 103.277589 
L 88.342428 108.248548 
L 90.15614 114.876493 
L 91.969853 128.132384 
L 93.783565 136.417315 
L 99.224703 166.243068 
L 101.038415 167.900055 
L 104.665841 164.586082 
L 106.479553 157.958137 
L 111.920691 172.871014 
L 113.734403 179.498959 
L 115.548116 182.812932 
L 117.361828 167.900055 
L 119.175541 129.78937 
L 120.989253 85.05074 
L 122.802966 104.934575 
L 124.616679 98.30663 
L 126.430391 96.649644 
L 128.244104 83.393753 
L 130.057816 85.05074 
L 131.871529 90.021699 
L 133.685241 101.620603 
L 135.498954 114.876493 
L 137.312666 129.78937 
L 139.126379 136.417315 
L 140.940091 129.78937 
L 142.753804 129.78937 
L 144.567517 141.388274 
L 146.381229 151.330192 
L 148.194942 157.958137 
L 150.008654 167.900055 
L 151.822367 166.243068 
L 153.636079 171.214027 
L 155.449792 182.812932 
L 157.263504 187.78389 
L 159.077217 187.78389 
L 160.890929 177.841973 
L 162.704642 157.958137 
L 164.518354 128.132384 
L 166.332067 119.847452 
L 168.14578 108.248548 
L 169.959492 104.934575 
L 171.773205 106.591562 
L 175.40063 126.475397 
L 177.214342 129.78937 
L 180.841767 146.359233 
L 182.65548 149.673205 
L 184.469192 149.673205 
L 186.282905 151.330192 
L 189.91033 157.958137 
L 191.724043 151.330192 
L 195.351468 161.27211 
L 198.978893 187.78389 
L 200.792605 182.812932 
L 202.606318 191.097863 
L 204.42003 167.900055 
L 206.233743 133.103342 
L 208.047456 114.876493 
L 209.861168 109.905534 
L 211.674881 114.876493 
L 213.488593 98.30663 
L 215.302306 123.161425 
L 217.116018 123.161425 
L 218.929731 144.702247 
L 220.743443 128.132384 
L 224.370868 154.644164 
L 226.184581 161.27211 
L 227.998294 164.586082 
L 229.812006 166.243068 
L 231.625719 169.557041 
L 233.439431 186.126904 
L 235.253144 186.126904 
L 237.066856 189.440877 
L 238.880569 182.812932 
L 240.694281 169.557041 
L 242.507994 171.214027 
L 244.321706 169.557041 
L 246.135419 169.557041 
L 247.949132 157.958137 
L 249.762844 141.388274 
L 251.576557 128.132384 
L 253.390269 124.818411 
L 255.203982 124.818411 
L 257.017694 114.876493 
L 258.831407 116.533479 
L 260.645119 119.847452 
L 262.458832 133.103342 
L 264.272544 133.103342 
L 266.086257 143.04526 
L 267.89997 148.016219 
L 269.713682 148.016219 
L 273.341107 138.074301 
L 275.15482 151.330192 
L 276.968532 157.958137 
L 278.782245 171.214027 
L 280.595957 181.155945 
L 282.40967 167.900055 
L 284.223382 162.929096 
L 286.037095 172.871014 
L 287.850808 171.214027 
L 289.66452 164.586082 
L 291.478233 151.330192 
L 293.291945 128.132384 
L 296.91937 91.678685 
L 298.733083 78.422795 
L 300.546795 80.079781 
L 302.360508 90.021699 
L 305.987933 106.591562 
L 307.801646 116.533479 
L 311.429071 139.731288 
L 315.056496 166.243068 
L 316.870208 176.184986 
L 318.683921 177.841973 
L 320.497633 182.812932 
L 322.311346 179.498959 
L 324.125058 179.498959 
L 325.938771 171.214027 
L 327.752483 176.184986 
L 329.566196 182.812932 
L 331.379909 194.411836 
L 333.193621 201.039781 
L 335.007334 177.841973 
L 336.821046 129.78937 
L 338.634759 98.30663 
L 340.448471 73.451836 
L 342.262184 53.568 
L 344.075896 80.079781 
L 345.889609 81.736767 
L 347.703321 85.05074 
L 349.517034 83.393753 
L 351.330747 91.678685 
L 353.144459 111.562521 
L 354.958172 118.190466 
L 356.771884 146.359233 
L 358.585597 164.586082 
L 360.399309 172.871014 
L 364.026734 169.557041 
L 365.840447 166.243068 
L 367.654159 179.498959 
L 369.467872 169.557041 
L 371.281585 162.929096 
L 373.095297 149.673205 
L 374.90901 156.301151 
L 376.722722 159.615123 
L 378.536435 148.016219 
L 380.350147 123.161425 
L 382.16386 106.591562 
L 383.977572 80.079781 
L 385.791285 78.422795 
L 387.604997 88.364712 
L 389.41871 76.765808 
L 391.232423 86.707726 
L 393.046135 80.079781 
L 394.859848 94.992658 
L 396.67356 113.219507 
L 398.487273 128.132384 
L 398.487273 128.132384 
" style="fill:none;stroke:#0000ff;stroke-linecap:square;stroke-width:1.5;"/>
   </g>
   <g id="line2d_18">
    <path clip-path="url(#pa529058789)" d="M 73.832727 204.353753 
L 75.64644 181.155945 
L 77.460152 161.27211 
L 79.273865 146.359233 
L 81.087577 126.475397 
L 82.90129 98.30663 
L 84.715003 80.079781 
L 86.528715 73.451836 
L 88.342428 90.021699 
L 90.15614 109.905534 
L 91.969853 136.417315 
L 93.783565 152.987178 
L 95.597278 164.586082 
L 97.41099 169.557041 
L 99.224703 179.498959 
L 101.038415 184.469918 
L 102.852128 184.469918 
L 108.293266 199.382795 
L 110.106978 207.667726 
L 111.920691 214.295671 
L 113.734403 219.26663 
L 115.548116 219.26663 
L 117.361828 214.295671 
L 119.175541 202.696767 
L 120.989253 172.871014 
L 124.616679 162.929096 
L 126.430391 172.871014 
L 128.244104 162.929096 
L 130.057816 186.126904 
L 131.871529 206.01074 
L 133.685241 217.609644 
L 135.498954 230.865534 
L 137.312666 240.807452 
L 139.126379 249.092384 
L 142.753804 252.406356 
L 144.567517 255.720329 
L 150.008654 260.691288 
L 151.822367 260.691288 
L 153.636079 264.00526 
L 157.263504 264.00526 
L 159.077217 260.691288 
L 160.890929 252.406356 
L 162.704642 240.807452 
L 164.518354 230.865534 
L 166.332067 219.26663 
L 168.14578 196.068822 
L 169.959492 177.841973 
L 171.773205 167.900055 
L 173.586917 161.27211 
L 175.40063 171.214027 
L 177.214342 182.812932 
L 179.028055 210.981699 
L 180.841767 215.952658 
L 182.65548 204.353753 
L 184.469192 215.952658 
L 186.282905 219.26663 
L 188.096618 224.237589 
L 189.91033 225.894575 
L 191.724043 229.208548 
L 193.537755 234.179507 
L 195.351468 234.179507 
L 197.16518 240.807452 
L 200.792605 244.121425 
L 202.606318 247.435397 
L 204.42003 242.464438 
L 206.233743 230.865534 
L 208.047456 212.638685 
L 209.861168 189.440877 
L 211.674881 156.301151 
L 213.488593 146.359233 
L 215.302306 133.103342 
L 217.116018 129.78937 
L 218.929731 131.446356 
L 220.743443 167.900055 
L 222.557156 186.126904 
L 224.370868 187.78389 
L 226.184581 194.411836 
L 227.998294 199.382795 
L 229.812006 209.324712 
L 231.625719 215.952658 
L 233.439431 215.952658 
L 238.880569 225.894575 
L 240.694281 225.894575 
L 242.507994 232.522521 
L 244.321706 237.493479 
L 246.135419 235.836493 
L 247.949132 222.580603 
L 249.762844 196.068822 
L 251.576557 174.528 
L 253.390269 146.359233 
L 255.203982 121.504438 
L 257.017694 101.620603 
L 258.831407 94.992658 
L 260.645119 76.765808 
L 262.458832 85.05074 
L 264.272544 139.731288 
L 266.086257 157.958137 
L 267.89997 164.586082 
L 269.713682 182.812932 
L 271.527395 204.353753 
L 273.341107 215.952658 
L 275.15482 222.580603 
L 276.968532 225.894575 
L 278.782245 240.807452 
L 282.40967 257.377315 
L 284.223382 254.063342 
L 286.037095 264.00526 
L 287.850808 270.633205 
L 289.66452 273.947178 
L 291.478233 252.406356 
L 293.291945 206.01074 
L 295.105658 167.900055 
L 296.91937 139.731288 
L 298.733083 99.963616 
L 300.546795 88.364712 
L 302.360508 78.422795 
L 304.17422 78.422795 
L 305.987933 75.108822 
L 307.801646 98.30663 
L 309.615358 119.847452 
L 311.429071 129.78937 
L 313.242783 151.330192 
L 315.056496 171.214027 
L 316.870208 194.411836 
L 318.683921 202.696767 
L 320.497633 209.324712 
L 322.311346 232.522521 
L 324.125058 239.150466 
L 325.938771 244.121425 
L 327.752483 262.348274 
L 329.566196 275.604164 
L 331.379909 273.947178 
L 333.193621 283.889096 
L 335.007334 250.74937 
L 336.821046 207.667726 
L 338.634759 186.126904 
L 340.448471 152.987178 
L 342.262184 123.161425 
L 344.075896 109.905534 
L 345.889609 99.963616 
L 347.703321 98.30663 
L 349.517034 111.562521 
L 353.144459 157.958137 
L 354.958172 169.557041 
L 356.771884 189.440877 
L 358.585597 202.696767 
L 360.399309 225.894575 
L 362.213022 229.208548 
L 364.026734 245.778411 
L 365.840447 252.406356 
L 367.654159 270.633205 
L 369.467872 282.23211 
L 371.281585 287.203068 
L 373.095297 295.488 
L 374.90901 287.203068 
L 376.722722 283.889096 
L 378.536435 264.00526 
L 380.350147 219.26663 
L 382.16386 191.097863 
L 383.977572 149.673205 
L 385.791285 128.132384 
L 387.604997 113.219507 
L 391.232423 96.649644 
L 393.046135 111.562521 
L 396.67356 154.644164 
L 398.487273 169.557041 
L 398.487273 169.557041 
" style="fill:none;stroke:#008000;stroke-linecap:square;stroke-width:1.5;"/>
   </g>
   <g id="line2d_19">
    <path clip-path="url(#pa529058789)" d="M 73.832727 201.039781 
L 75.64644 177.841973 
L 77.460152 156.301151 
L 79.273865 131.446356 
L 81.087577 114.876493 
L 82.90129 86.707726 
L 84.715003 80.079781 
L 86.528715 78.422795 
L 88.342428 90.021699 
L 90.15614 113.219507 
L 91.969853 129.78937 
L 93.783565 149.673205 
L 95.597278 164.586082 
L 97.41099 172.871014 
L 99.224703 174.528 
L 101.038415 177.841973 
L 102.852128 182.812932 
L 106.479553 189.440877 
L 108.293266 199.382795 
L 110.106978 201.039781 
L 111.920691 207.667726 
L 115.548116 210.981699 
L 117.361828 210.981699 
L 119.175541 206.01074 
L 120.989253 174.528 
L 122.802966 181.155945 
L 124.616679 181.155945 
L 126.430391 164.586082 
L 128.244104 181.155945 
L 130.057816 196.068822 
L 131.871529 209.324712 
L 133.685241 217.609644 
L 135.498954 227.551562 
L 137.312666 235.836493 
L 139.126379 240.807452 
L 140.940091 244.121425 
L 142.753804 244.121425 
L 151.822367 252.406356 
L 153.636079 252.406356 
L 155.449792 249.092384 
L 159.077217 249.092384 
L 160.890929 239.150466 
L 162.704642 227.551562 
L 164.518354 217.609644 
L 166.332067 201.039781 
L 168.14578 186.126904 
L 169.959492 179.498959 
L 171.773205 159.615123 
L 173.586917 164.586082 
L 175.40063 154.644164 
L 177.214342 171.214027 
L 179.028055 197.725808 
L 180.841767 202.696767 
L 182.65548 202.696767 
L 184.469192 214.295671 
L 186.282905 219.26663 
L 188.096618 225.894575 
L 193.537755 230.865534 
L 195.351468 234.179507 
L 197.16518 234.179507 
L 198.978893 237.493479 
L 200.792605 239.150466 
L 202.606318 242.464438 
L 204.42003 235.836493 
L 206.233743 225.894575 
L 208.047456 207.667726 
L 209.861168 187.78389 
L 211.674881 171.214027 
L 213.488593 146.359233 
L 215.302306 128.132384 
L 217.116018 118.190466 
L 218.929731 136.417315 
L 220.743443 151.330192 
L 222.557156 162.929096 
L 224.370868 181.155945 
L 226.184581 202.696767 
L 227.998294 209.324712 
L 229.812006 214.295671 
L 231.625719 224.237589 
L 233.439431 225.894575 
L 237.066856 232.522521 
L 238.880569 234.179507 
L 240.694281 237.493479 
L 242.507994 237.493479 
L 244.321706 240.807452 
L 246.135419 242.464438 
L 247.949132 227.551562 
L 249.762844 196.068822 
L 251.576557 171.214027 
L 255.203982 118.190466 
L 257.017694 94.992658 
L 258.831407 85.05074 
L 260.645119 73.451836 
L 262.458832 71.794849 
L 264.272544 78.422795 
L 266.086257 129.78937 
L 267.89997 167.900055 
L 269.713682 192.754849 
L 271.527395 201.039781 
L 273.341107 220.923616 
L 275.15482 232.522521 
L 276.968532 240.807452 
L 278.782245 250.74937 
L 280.595957 257.377315 
L 284.223382 267.319233 
L 287.850808 273.947178 
L 289.66452 278.918137 
L 291.478233 257.377315 
L 293.291945 215.952658 
L 295.105658 167.900055 
L 296.91937 129.78937 
L 298.733083 111.562521 
L 300.546795 83.393753 
L 302.360508 75.108822 
L 304.17422 65.166904 
L 305.987933 70.137863 
L 307.801646 86.707726 
L 309.615358 118.190466 
L 311.429071 144.702247 
L 313.242783 157.958137 
L 315.056496 169.557041 
L 316.870208 182.812932 
L 318.683921 194.411836 
L 320.497633 207.667726 
L 322.311346 217.609644 
L 324.125058 224.237589 
L 325.938771 232.522521 
L 327.752483 237.493479 
L 329.566196 244.121425 
L 333.193621 254.063342 
L 335.007334 239.150466 
L 336.821046 192.754849 
L 338.634759 176.184986 
L 340.448471 154.644164 
L 342.262184 129.78937 
L 344.075896 113.219507 
L 345.889609 101.620603 
L 347.703321 99.963616 
L 349.517034 104.934575 
L 351.330747 121.504438 
L 353.144459 148.016219 
L 354.958172 171.214027 
L 356.771884 186.126904 
L 358.585597 192.754849 
L 360.399309 225.894575 
L 362.213022 230.865534 
L 364.026734 250.74937 
L 365.840447 265.662247 
L 367.654159 275.604164 
L 369.467872 273.947178 
L 371.281585 280.575123 
L 373.095297 285.546082 
L 374.90901 280.575123 
L 376.722722 280.575123 
L 378.536435 260.691288 
L 380.350147 209.324712 
L 382.16386 174.528 
L 385.791285 118.190466 
L 387.604997 99.963616 
L 389.41871 94.992658 
L 391.232423 86.707726 
L 393.046135 98.30663 
L 394.859848 116.533479 
L 396.67356 144.702247 
L 398.487273 161.27211 
L 398.487273 161.27211 
" style="fill:none;stroke:#ffa500;stroke-linecap:square;stroke-width:1.5;"/>
   </g>
   <g id="patch_3">
    <path d="M 57.6 307.584 
L 57.6 41.472 
" style="fill:none;stroke:#000000;stroke-linecap:square;stroke-linejoin:miter;stroke-width:0.8;"/>
   </g>
   <g id="patch_4">
    <path d="M 414.72 307.584 
L 414.72 41.472 
" style="fill:none;stroke:#000000;stroke-linecap:square;stroke-linejoin:miter;stroke-width:0.8;"/>
   </g>
   <g id="patch_5">
    <path d="M 57.6 307.584 
L 414.72 307.584 
" style="fill:none;stroke:#000000;stroke-linecap:square;stroke-linejoin:miter;stroke-width:0.8;"/>
   </g>
   <g id="patch_6">
    <path d="M 57.6 41.472 
L 414.72 41.472 
" style="fill:none;stroke:#000000;stroke-linecap:square;stroke-linejoin:miter;stroke-width:0.8;"/>
   </g>
   <g id="legend_1">
    <g id="patch_7">
     <path d="M 192.96 301.584 
L 279.36 301.584 
Q 281.76 301.584 281.76 299.184 
L 281.76 252.684 
Q 281.76 250.284 279.36 250.284 
L 192.96 250.284 
Q 190.56 250.284 190.56 252.684 
L 190.56 299.184 
Q 190.56 301.584 192.96 301.584 
z
" style="fill:#ffffff;opacity:0.8;stroke:#cccccc;stroke-linejoin:miter;"/>
    </g>
    <g id="line2d_20">
     <path d="M 195.36 259.284 
L 219.36 259.284 
" style="fill:none;stroke:#0000ff;stroke-linecap:square;stroke-width:1.5;"/>
    </g>
    <g id="line2d_21"/>
    <g id="text_19">
     <!-- station1 -->
     <g transform="translate(228.96 263.484)scale(0.12 -0.12)">
      <defs>
       <path d="M 42.96875 14.0625 
Q 42.96875 7.8125 38.078125 4.484375 
Q 33.203125 1.171875 25.78125 1.171875 
Q 16.40625 1.171875 11.328125 4.875 
Q 6.25 8.59375 6.25 15.625 
L 14.0625 15.625 
Q 14.0625 10.9375 17.375 9.375 
Q 20.703125 7.8125 25.390625 7.8125 
Q 30.078125 7.8125 32.421875 9.5625 
Q 34.765625 11.328125 34.765625 14.0625 
Q 34.765625 16.015625 32.8125 17.96875 
Q 30.859375 19.921875 23.046875 21.09375 
Q 14.0625 22.265625 10.734375 25.578125 
Q 7.421875 28.90625 7.421875 34.375 
Q 7.421875 39.0625 11.90625 42.765625 
Q 16.40625 46.484375 25 46.484375 
Q 32.8125 46.484375 37.296875 42.96875 
Q 41.796875 39.453125 41.796875 33.59375 
L 33.984375 33.59375 
Q 33.984375 37.109375 31.4375 38.46875 
Q 28.90625 39.84375 25 39.84375 
Q 19.921875 39.84375 17.765625 38.078125 
Q 15.625 36.328125 15.625 33.984375 
Q 15.625 31.25 17.578125 29.6875 
Q 19.53125 28.125 25.78125 27.34375 
Q 35.9375 25.78125 39.453125 22.453125 
Q 42.96875 19.140625 42.96875 14.0625 
z
" id="SimHei-115"/>
       <path d="M 45.703125 23.828125 
Q 45.703125 13.671875 39.453125 7.421875 
Q 33.203125 1.171875 24.609375 1.171875 
Q 16.015625 1.171875 9.765625 7.421875 
Q 3.515625 13.671875 3.515625 23.828125 
Q 3.515625 33.984375 9.765625 40.234375 
Q 16.015625 46.484375 24.609375 46.484375 
Q 33.203125 46.484375 39.453125 40.234375 
Q 45.703125 33.984375 45.703125 23.828125 
z
M 37.109375 23.828125 
Q 37.109375 31.640625 33.203125 35.546875 
Q 29.296875 39.453125 24.609375 39.453125 
Q 19.921875 39.453125 16.015625 35.546875 
Q 12.109375 31.640625 12.109375 23.828125 
Q 12.109375 16.015625 16.015625 12.109375 
Q 19.921875 8.203125 24.609375 8.203125 
Q 29.296875 8.203125 33.203125 12.109375 
Q 37.109375 16.015625 37.109375 23.828125 
z
" id="SimHei-111"/>
       <path d="M 43.75 1.953125 
L 35.9375 1.953125 
L 35.9375 30.078125 
Q 35.9375 34.765625 33.59375 37.5 
Q 31.25 40.234375 27.34375 40.234375 
Q 22.265625 40.234375 17.765625 34.953125 
Q 13.28125 29.6875 13.28125 21.875 
L 13.28125 1.953125 
L 5.46875 1.953125 
L 5.46875 45.703125 
L 13.28125 45.703125 
L 13.28125 37.5 
Q 16.40625 41.796875 20.109375 44.140625 
Q 23.828125 46.484375 29.6875 46.484375 
Q 36.71875 46.484375 40.234375 42.578125 
Q 43.75 38.671875 43.75 32.8125 
z
" id="SimHei-110"/>
      </defs>
      <use xlink:href="#SimHei-115"/>
      <use x="50" xlink:href="#SimHei-116"/>
      <use x="100" xlink:href="#SimHei-97"/>
      <use x="150" xlink:href="#SimHei-116"/>
      <use x="200" xlink:href="#SimHei-105"/>
      <use x="250" xlink:href="#SimHei-111"/>
      <use x="300" xlink:href="#SimHei-110"/>
      <use x="350" xlink:href="#SimHei-49"/>
     </g>
    </g>
    <g id="line2d_22">
     <path d="M 195.36 275.184 
L 219.36 275.184 
" style="fill:none;stroke:#008000;stroke-linecap:square;stroke-width:1.5;"/>
    </g>
    <g id="line2d_23"/>
    <g id="text_20">
     <!-- station2 -->
     <g transform="translate(228.96 279.384)scale(0.12 -0.12)">
      <use xlink:href="#SimHei-115"/>
      <use x="50" xlink:href="#SimHei-116"/>
      <use x="100" xlink:href="#SimHei-97"/>
      <use x="150" xlink:href="#SimHei-116"/>
      <use x="200" xlink:href="#SimHei-105"/>
      <use x="250" xlink:href="#SimHei-111"/>
      <use x="300" xlink:href="#SimHei-110"/>
      <use x="350" xlink:href="#SimHei-50"/>
     </g>
    </g>
    <g id="line2d_24">
     <path d="M 195.36 291.084 
L 219.36 291.084 
" style="fill:none;stroke:#ffa500;stroke-linecap:square;stroke-width:1.5;"/>
    </g>
    <g id="line2d_25"/>
    <g id="text_21">
     <!-- station3 -->
     <g transform="translate(228.96 295.284)scale(0.12 -0.12)">
      <defs>
       <path d="M 3.90625 19.140625 
L 10.9375 20.3125 
Q 12.5 15.234375 16.015625 11.90625 
Q 19.53125 8.59375 24.796875 8.78125 
Q 30.078125 8.984375 33.203125 13.078125 
Q 36.328125 17.1875 35.9375 22.453125 
Q 35.546875 27.734375 31.828125 30.65625 
Q 28.125 33.59375 19.921875 34.765625 
L 19.921875 39.84375 
Q 28.125 40.625 31.828125 44.140625 
Q 35.546875 47.65625 35.15625 53.3125 
Q 34.765625 58.984375 30.078125 61.515625 
Q 25.390625 64.0625 20.109375 62.109375 
Q 14.84375 60.15625 11.71875 51.171875 
L 4.6875 52.34375 
Q 7.03125 59.375 11.125 64.0625 
Q 15.234375 68.75 22.265625 69.53125 
Q 29.296875 70.3125 34.5625 67.765625 
Q 39.84375 65.234375 41.984375 59.953125 
Q 44.140625 54.6875 42.578125 48.4375 
Q 41.015625 42.1875 33.59375 37.5 
Q 39.0625 35.15625 41.984375 30.46875 
Q 44.921875 25.78125 43.9375 18.15625 
Q 42.96875 10.546875 37.109375 5.859375 
Q 31.25 1.171875 23.828125 1.359375 
Q 16.40625 1.5625 10.9375 6.046875 
Q 5.46875 10.546875 3.90625 19.140625 
z
" id="SimHei-51"/>
      </defs>
      <use xlink:href="#SimHei-115"/>
      <use x="50" xlink:href="#SimHei-116"/>
      <use x="100" xlink:href="#SimHei-97"/>
      <use x="150" xlink:href="#SimHei-116"/>
      <use x="200" xlink:href="#SimHei-105"/>
      <use x="250" xlink:href="#SimHei-111"/>
      <use x="300" xlink:href="#SimHei-110"/>
      <use x="350" xlink:href="#SimHei-51"/>
     </g>
    </g>
   </g>
  </g>
 </g>
 <defs>
  <clipPath id="pa529058789">
   <rect height="266.112" width="357.12" x="57.6" y="41.472"/>
  </clipPath>
 </defs>
</svg>
